<svg width="43" height="53" viewBox="0 0 43 53" fill="none" xmlns="http://www.w3.org/2000/svg">
<path id="Vector" d="M36.9666 24.3705C38.751 22.1699 39.8516 19.486 40.1303 16.656C40.995 7.6294 33.9799 0 25.2412 0H1.87475C1.37754 0 0.900688 0.199425 0.549103 0.554405C0.197518 0.909385 0 1.39084 0 1.89286V7.57143C0 8.07345 0.197518 8.5549 0.549103 8.90988C0.900688 9.26486 1.37754 9.46429 1.87475 9.46429H5.60903V43.5357H1.87475C1.37754 43.5357 0.900688 43.7351 0.549103 44.0901C0.197518 44.4451 0 44.9266 0 45.4286V51.1071C0 51.6092 0.197518 52.0906 0.549103 52.4456C0.900688 52.8006 1.37754 53 1.87475 53H26.4012C34.697 53 42.1187 46.8778 42.9225 38.5196C43.4779 32.7878 41.0021 27.6286 36.9666 24.3705ZM14.9582 9.46429H25.2412C26.7329 9.46429 28.1634 10.0626 29.2182 11.1275C30.2729 12.1924 30.8655 13.6368 30.8655 15.1429C30.8655 16.6489 30.2729 18.0933 29.2182 19.1582C28.1634 20.2232 26.7329 20.8214 25.2412 20.8214H14.9582V9.46429ZM25.2412 43.5357H14.9582V30.2857H25.2412C26.9815 30.2857 28.6505 30.9837 29.881 32.2261C31.1116 33.4686 31.8029 35.1537 31.8029 36.9107C31.8029 38.6678 31.1116 40.3529 29.881 41.5953C28.6505 42.8377 26.9815 43.5357 25.2412 43.5357Z" fill="black"/>
</svg>
