<svg width="37" height="51" viewBox="0 0 37 51" fill="none" xmlns="http://www.w3.org/2000/svg">
<path id="Vector" d="M37 1.82143V5.46429C37 5.94736 36.8051 6.41065 36.4581 6.75223C36.1112 7.09381 35.6407 7.28571 35.15 7.28571H27.8934L18.6434 43.7143H24.05C24.5407 43.7143 25.0112 43.9062 25.3581 44.2478C25.7051 44.5894 25.9 45.0526 25.9 45.5357V49.1786C25.9 49.6616 25.7051 50.1249 25.3581 50.4665C25.0112 50.8081 24.5407 51 24.05 51H1.85C1.35935 51 0.888795 50.8081 0.541852 50.4665C0.19491 50.1249 0 49.6616 0 49.1786V45.5357C0 45.0526 0.19491 44.5894 0.541852 44.2478C0.888795 43.9062 1.35935 43.7143 1.85 43.7143H9.10663L18.3566 7.28571H12.95C12.4593 7.28571 11.9888 7.09381 11.6419 6.75223C11.2949 6.41065 11.1 5.94736 11.1 5.46429V1.82143C11.1 1.33836 11.2949 0.875068 11.6419 0.533484C11.9888 0.1919 12.4593 0 12.95 0H35.15C35.6407 0 36.1112 0.1919 36.4581 0.533484C36.8051 0.875068 37 1.33836 37 1.82143Z" fill="black"/>
</svg>
