<svg width="44" height="44" viewBox="0 0 44 44" fill="none" xmlns="http://www.w3.org/2000/svg">
<path id="Vector" d="M42.7882 12.2058L38.8263 16.1676C38.4224 16.5716 37.7692 16.5716 37.3653 16.1676L27.8258 6.62819C27.4219 6.22427 27.4219 5.57112 27.8258 5.1672L31.7877 1.20532C33.3948 -0.401774 36.0074 -0.401774 37.6231 1.20532L42.7882 6.37037C44.4039 7.97747 44.4039 10.5901 42.7882 12.2058ZM24.4225 8.57046L1.8543 31.1385L0.0323402 41.5804C-0.21689 42.9898 1.01207 44.2102 2.42151 43.9695L12.8634 42.139L35.4316 19.5709C35.8356 19.167 35.8356 18.5138 35.4316 18.1099L25.8921 8.57046C25.4796 8.16654 24.8265 8.16654 24.4225 8.57046ZM10.6633 29.2049C10.1906 28.7322 10.1906 27.9759 10.6633 27.5032L23.8983 14.2683C24.371 13.7957 25.1273 13.7957 25.5999 14.2683C26.0726 14.741 26.0726 15.4973 25.5999 15.97L12.3649 29.2049C11.8923 29.6775 11.136 29.6775 10.6633 29.2049ZM7.56081 36.4325H11.686V39.5522L6.14278 40.5233L3.47 37.8505L4.44114 32.3073H7.56081V36.4325Z" fill="black"/>
</svg>
