<svg width="44" height="50" viewBox="0 0 44 50" fill="none" xmlns="http://www.w3.org/2000/svg">
<path id="Vector" d="M3.14286 6.25H6.28571V21.875C6.28571 30.4902 13.3355 37.5 22 37.5C30.6645 37.5 37.7143 30.4902 37.7143 21.875V6.25H40.8571C41.2739 6.25 41.6736 6.08538 41.9683 5.79235C42.263 5.49933 42.4286 5.1019 42.4286 4.6875V1.5625C42.4286 1.1481 42.263 0.750671 41.9683 0.457646C41.6736 0.16462 41.2739 0 40.8571 0L26.7143 0C26.2975 0 25.8978 0.16462 25.6031 0.457646C25.3084 0.750671 25.1429 1.1481 25.1429 1.5625V4.6875C25.1429 5.1019 25.3084 5.49933 25.6031 5.79235C25.8978 6.08538 26.2975 6.25 26.7143 6.25H29.8571V21.875C29.8571 23.947 29.0293 25.9341 27.5558 27.3993C26.0823 28.8644 24.0838 29.6875 22 29.6875C19.9162 29.6875 17.9177 28.8644 16.4442 27.3993C14.9707 25.9341 14.1429 23.947 14.1429 21.875V6.25H17.2857C17.7025 6.25 18.1022 6.08538 18.3969 5.79235C18.6916 5.49933 18.8571 5.1019 18.8571 4.6875V1.5625C18.8571 1.1481 18.6916 0.750671 18.3969 0.457646C18.1022 0.16462 17.7025 0 17.2857 0L3.14286 0C2.72609 0 2.32639 0.16462 2.03169 0.457646C1.73699 0.750671 1.57143 1.1481 1.57143 1.5625V4.6875C1.57143 5.1019 1.73699 5.49933 2.03169 5.79235C2.32639 6.08538 2.72609 6.25 3.14286 6.25ZM42.4286 43.75H1.57143C1.15466 43.75 0.754961 43.9146 0.460261 44.2076C0.165561 44.5007 0 44.8981 0 45.3125L0 48.4375C0 48.8519 0.165561 49.2493 0.460261 49.5424C0.754961 49.8354 1.15466 50 1.57143 50H42.4286C42.8453 50 43.245 49.8354 43.5397 49.5424C43.8344 49.2493 44 48.8519 44 48.4375V45.3125C44 44.8981 43.8344 44.5007 43.5397 44.2076C43.245 43.9146 42.8453 43.75 42.4286 43.75Z" fill="black"/>
</svg>
